# xmcd
#
# Track frame offsets: 
#        150
#        20994
#        38345
#        55820
#        72601
#        95574
#        110331
#        128578
#        148379
#        164597
#
# Disc length: 2442 seconds
#
# Revision: 0
# Processed by: cddbd v1.5.2PL0 Copyright (c) Steve Scherf et al.
# Submitted via: ExactAudioCopyFreeDBPlugin 1.0
#
DISCID=9209880a
DTITLE=Ben Granfelt - My soul to you
DYEAR=2018
DGENRE=Blues
TTITLE0=Weight of the world
TTITLE1=Life, Living and you
TTITLE2=This is love
TTITLE3=My soul to you
TTITLE4=A better place
TTITLE5=Fuel to burn
TTITLE6=My heroine
TTITLE7=Tough love
TTITLE8=Mind your head and watch your step
TTITLE9=Sunrise
EXTD=
EXTT0=
EXTT1=
EXTT2=
EXTT3=
EXTT4=
EXTT5=
EXTT6=
EXTT7=
EXTT8=
EXTT9=
PLAYORDER=
